<mxfile host="Electron" modified="2023-08-03T12:54:33.487Z" agent="Mozilla/5.0 (Windows NT 10.0; Win64; x64) AppleWebKit/537.36 (KHTML, like Gecko) draw.io/21.6.5 Chrome/114.0.5735.243 Electron/25.3.1 Safari/537.36" etag="40OaefiyFvYVpA6TvIF_" version="21.6.5" type="device">
  <diagram name="Page-1" id="-Cgpy4bIzqHKDVcjYLih">
    <mxGraphModel dx="880" dy="511" grid="1" gridSize="10" guides="1" tooltips="1" connect="1" arrows="1" fold="1" page="1" pageScale="1" pageWidth="1169" pageHeight="827" math="0" shadow="0">
      <root>
        <mxCell id="0" />
        <mxCell id="1" parent="0" />
        <mxCell id="nPWzO8MPGK_4H_GsT2IE-2" value="&lt;b&gt;TheftAlarm&lt;/b&gt;" style="fontStyle=0;html=1;whiteSpace=wrap;" vertex="1" parent="1">
          <mxGeometry x="35" y="25" width="90" height="30" as="geometry" />
        </mxCell>
        <mxCell id="nPWzO8MPGK_4H_GsT2IE-3" value="«interface»&lt;br&gt;&lt;b&gt;Isensor&lt;/b&gt;" style="swimlane;fontStyle=0;align=center;verticalAlign=top;childLayout=stackLayout;horizontal=1;startSize=40;horizontalStack=0;resizeParent=1;resizeParentMax=0;resizeLast=0;collapsible=0;marginBottom=0;html=1;whiteSpace=wrap;" vertex="1" parent="1">
          <mxGeometry x="240" width="140" height="80" as="geometry" />
        </mxCell>
        <mxCell id="nPWzO8MPGK_4H_GsT2IE-4" value="activate()&lt;br&gt;read()" style="text;html=1;strokeColor=none;fillColor=none;align=left;verticalAlign=middle;spacingLeft=4;spacingRight=4;overflow=hidden;rotatable=0;points=[[0,0.5],[1,0.5]];portConstraint=eastwest;whiteSpace=wrap;" vertex="1" parent="nPWzO8MPGK_4H_GsT2IE-3">
          <mxGeometry y="40" width="140" height="40" as="geometry" />
        </mxCell>
        <mxCell id="nPWzO8MPGK_4H_GsT2IE-5" value="&lt;b&gt;ProximitySensor&lt;/b&gt;" style="fontStyle=0;html=1;whiteSpace=wrap;" vertex="1" parent="1">
          <mxGeometry x="480" y="25" width="120" height="30" as="geometry" />
        </mxCell>
        <mxCell id="nPWzO8MPGK_4H_GsT2IE-6" value="" style="endArrow=block;startArrow=none;endFill=0;startFill=0;endSize=8;html=1;verticalAlign=bottom;dashed=1;labelBackgroundColor=none;rounded=0;exitX=0;exitY=0.5;exitDx=0;exitDy=0;entryX=1;entryY=0.5;entryDx=0;entryDy=0;" edge="1" parent="1" source="nPWzO8MPGK_4H_GsT2IE-5" target="nPWzO8MPGK_4H_GsT2IE-3">
          <mxGeometry width="160" relative="1" as="geometry">
            <mxPoint x="370" y="250" as="sourcePoint" />
            <mxPoint x="530" y="250" as="targetPoint" />
          </mxGeometry>
        </mxCell>
        <mxCell id="nPWzO8MPGK_4H_GsT2IE-7" value="«use»" style="endArrow=open;startArrow=none;endFill=0;startFill=0;endSize=8;html=1;verticalAlign=bottom;dashed=1;labelBackgroundColor=none;rounded=0;entryX=0;entryY=0.5;entryDx=0;entryDy=0;exitX=1;exitY=0.5;exitDx=0;exitDy=0;" edge="1" parent="1" source="nPWzO8MPGK_4H_GsT2IE-2" target="nPWzO8MPGK_4H_GsT2IE-3">
          <mxGeometry x="0.0077" width="160" relative="1" as="geometry">
            <mxPoint x="130" y="40" as="sourcePoint" />
            <mxPoint x="270" y="39.5" as="targetPoint" />
            <mxPoint as="offset" />
          </mxGeometry>
        </mxCell>
        <mxCell id="nPWzO8MPGK_4H_GsT2IE-8" value="Figure 10.11 Alternative notation for required and provided Interface" style="text;html=1;align=center;verticalAlign=middle;resizable=0;points=[];autosize=1;strokeColor=none;fillColor=none;" vertex="1" parent="1">
          <mxGeometry x="35" y="100" width="380" height="30" as="geometry" />
        </mxCell>
      </root>
    </mxGraphModel>
  </diagram>
</mxfile>
